# xmcd CD database file
#
# Track frame offsets:
#	150
#	12652
#	29205
#	42467
#	60102
#	76640
#	90165
#	103780
#	118375
#	132842
#	147537
#	160970
#	177127
#	193557
#	212172
#	226460
#	243185
#	258445
#	271925
#	289932
#	307907
#	323040
#
# Disc length: 4523 seconds
#
# Revision: 0
# Processed by: cddbd v1.5.2PL0 Copyright (c) Steve Scherf et al.
# Submitted via: CdAid (MTCDDB.DLL V2003.12.21)
#
DISCID=3611a916
DTITLE=Various Artist - Motown History - Funky Psychedelia 1970
DYEAR=1997
DGENRE=Soul
TTITLE0=Four Tops - It's All In the Game
TTITLE1=R Dean Taylor - Indiana Wants Me
TTITLE2=Edwin Starr - Time
TTITLE3=Temptations - Psychedelic Shack
TTITLE4=Gladys Knight and the Pips - You Need Love Like I Do (Don't You)
TTITLE5=Jackson 5 - ABC
TTITLE6=Diana Ross - Reach Out and Touch (Somebody's Hand)
TTITLE7=Detroit Spinners - It's A Shame
TTITLE8=Supremes - Up The Ladder To the Roof
TTITLE9=Gladys Knight and the Pips - If I Were Your Woman
TTITLE10=Supremes - Stoned Love
TTITLE11=Diana Ross - Ain't No Mountain High Enough
TTITLE12=Rare Earth - (I Know) I'm Losing You
TTITLE13=Temptations - Ball of Confusion (That's What The World Is Today
TTITLE14=Supremes and Four Tops - River Deep Mountain High
TTITLE15=Diana Ross - I'm Still Waiting
TTITLE16=Edwin - Starr War
TTITLE17=Stevie Wonder - If You Really Love MeTitle 18
TTITLE18=Jackson 5 - I'll Be There
TTITLE19=Marvin Gaye - What's Going On
TTITLE20=Diana Ross - Remember Me
TTITLE21=Edwin Starr - Stop The War Now
EXTD=Early Seventies Volume One ID3G:  42 YEAR: 1997
EXTT0=
EXTT1=
EXTT2=
EXTT3=
EXTT4=
EXTT5=
EXTT6=
EXTT7=
EXTT8=
EXTT9=
EXTT10=
EXTT11=
EXTT12=
EXTT13=
EXTT14=
EXTT15=
EXTT16=
EXTT17=
EXTT18=
EXTT19=
EXTT20=
EXTT21=
PLAYORDER=
